M48
INCH,LZ
;FILE_FORMAT=2:4
;TYPE=PLATED
;Layer: PTH_Through
;EasyEDA v6.5.22, 2023-03-11 10:03:51
;8c804c29d0f949b487868860c40900b7,2edda57568cb4d92a7641b919e05c1e7,10
;Gerber Generator version 0.2
;Holesize 1 = 0.0350 inch
T01C0.0350
;Holesize 2 = 0.0390 inch
T02C0.0390
;Holesize 3 = 0.0510 inch
T03C0.0510
%
G05
G90
T01
X-004300Y-007550
X-003300Y-007550
X-007200Y-006150
X-006200Y-006150
X-007200Y-004000
X-006200Y-004000
X001300Y-007550
X002300Y-007550
X003300Y-007550
X004300Y-007550
T02
X-004478Y004400
X-004478Y003400
X-004478Y002400
X-004478Y001400
X-004478Y000400
X-004478Y-000600
X-004478Y-001600
X-004478Y-002600
X004578Y-002600
X004578Y-001600
X004578Y-000600
X004578Y000400
X004578Y001400
X004578Y002400
X004578Y003400
X004578Y004400
T03
X006550Y004236
X006550Y002264
M30
