G04 Layer: BottomLayer*
G04 EasyEDA v6.5.22, 2023-03-11 10:03:51*
G04 8c804c29d0f949b487868860c40900b7,2edda57568cb4d92a7641b919e05c1e7,10*
G04 Gerber Generator version 0.2*
G04 Scale: 100 percent, Rotated: No, Reflected: No *
G04 Dimensions in inches *
G04 leading zeros omitted , absolute positions ,3 integer and 6 decimal *
%FSLAX36Y36*%
%MOIN*%

%ADD10C,0.0150*%
%ADD11C,0.0500*%
%ADD12R,0.0620X0.0620*%
%ADD13C,0.0620*%
%ADD14C,0.0787*%
%ADD15R,0.0709X0.0709*%

%LPD*%
D10*
X649182Y-215000D02*
G01*
X735091Y-215000D01*
X649182Y-215000D02*
G01*
X735091Y-247726D01*
X649182Y-280455D02*
G01*
X735091Y-247726D01*
X649182Y-280455D02*
G01*
X735091Y-280455D01*
X649182Y-307454D02*
G01*
X653272Y-311545D01*
X649182Y-315635D01*
X645091Y-311545D01*
X649182Y-307454D01*
X677818Y-311545D02*
G01*
X735091Y-311545D01*
X649182Y-342636D02*
G01*
X735091Y-342636D01*
X677818Y-383544D02*
G01*
X718726Y-342636D01*
X702363Y-359000D02*
G01*
X735091Y-387636D01*
X677818Y-414636D02*
G01*
X735091Y-414636D01*
X702363Y-414636D02*
G01*
X690091Y-418726D01*
X681909Y-426909D01*
X677818Y-435091D01*
X677818Y-447363D01*
X677818Y-494818D02*
G01*
X681909Y-486635D01*
X690091Y-478454D01*
X702363Y-474364D01*
X710545Y-474364D01*
X722818Y-478454D01*
X730999Y-486635D01*
X735091Y-494818D01*
X735091Y-507091D01*
X730999Y-515273D01*
X722818Y-523454D01*
X710545Y-527545D01*
X702363Y-527545D01*
X690091Y-523454D01*
X681909Y-515273D01*
X677818Y-507091D01*
X677818Y-494818D01*
X649182Y-554544D02*
G01*
X735091Y-554544D01*
X649182Y-554544D02*
G01*
X649182Y-583182D01*
X653272Y-595455D01*
X661455Y-603636D01*
X669636Y-607726D01*
X681909Y-611817D01*
X702363Y-611817D01*
X714636Y-607726D01*
X722818Y-603636D01*
X730999Y-595455D01*
X735091Y-583182D01*
X735091Y-554544D01*
X677818Y-687908D02*
G01*
X735091Y-687908D01*
X690091Y-687908D02*
G01*
X681909Y-679726D01*
X677818Y-671545D01*
X677818Y-659272D01*
X681909Y-651091D01*
X690091Y-642908D01*
X702363Y-638818D01*
X710545Y-638818D01*
X722818Y-642908D01*
X730999Y-651091D01*
X735091Y-659272D01*
X735091Y-671545D01*
X730999Y-679726D01*
X722818Y-687908D01*
X690091Y-759908D02*
G01*
X681909Y-755817D01*
X677818Y-743544D01*
X677818Y-731273D01*
X681909Y-719000D01*
X690091Y-714908D01*
X698272Y-719000D01*
X702363Y-727181D01*
X706455Y-747636D01*
X710545Y-755817D01*
X718726Y-759908D01*
X722818Y-759908D01*
X730999Y-755817D01*
X735091Y-743544D01*
X735091Y-731273D01*
X730999Y-719000D01*
X722818Y-714908D01*
X649182Y-786909D02*
G01*
X735091Y-786909D01*
X694182Y-786909D02*
G01*
X681909Y-799182D01*
X677818Y-807363D01*
X677818Y-819636D01*
X681909Y-827818D01*
X694182Y-831909D01*
X735091Y-831909D01*
D11*
X-447750Y-60000D02*
G01*
X-362291Y-60000D01*
X129998Y-755000D02*
G01*
X129998Y-552289D01*
X-362291Y-60000D01*
X654998Y226399D02*
G01*
X735848Y307249D01*
X735848Y455579D01*
X606628Y584800D01*
X-432060Y584800D01*
X-523261Y493600D01*
X-523261Y386810D01*
X-476451Y340000D01*
X-447750Y340000D01*
X-447750Y440000D02*
G01*
X-362291Y440000D01*
X-362291Y440000D02*
G01*
X-286440Y515850D01*
X562748Y515850D01*
X654998Y423600D01*
X-447750Y40000D02*
G01*
X-362291Y40000D01*
X-362291Y40000D02*
G01*
X229998Y-552289D01*
X229998Y-755000D01*
X-447750Y140000D02*
G01*
X-533211Y140000D01*
X-533211Y140000D02*
G01*
X-720001Y-46790D01*
X-720001Y-400000D01*
X-430001Y-755000D02*
G01*
X-430001Y-607680D01*
X-372240Y-549920D01*
X-372240Y-206810D01*
X-419050Y-160000D01*
X-447750Y-160000D01*
X457759Y440000D02*
G01*
X372298Y440000D01*
X329998Y-755000D02*
G01*
X329998Y397699D01*
X372298Y440000D01*
X-330001Y-755000D02*
G01*
X-251030Y-833969D01*
X260909Y-833969D01*
X329998Y-764879D01*
X329998Y-755000D01*
X-620001Y-615000D02*
G01*
X-620001Y-400000D01*
X429998Y-755000D02*
G01*
X429998Y-764639D01*
X291428Y-903209D01*
X-404310Y-903209D01*
X-620001Y-687519D01*
X-620001Y-615000D01*
X457759Y-345459D02*
G01*
X429998Y-373220D01*
X429998Y-755000D01*
X457759Y-260000D02*
G01*
X457759Y-345459D01*
X-720001Y-615000D02*
G01*
X-720001Y-533969D01*
X-720001Y-533969D02*
G01*
X-791190Y-462779D01*
X-791190Y-17319D01*
X-533870Y240000D01*
X-447750Y240000D01*
D12*
G01*
X-430000Y-755000D03*
D13*
G01*
X-330000Y-755000D03*
D12*
G01*
X-720000Y-615000D03*
D13*
G01*
X-620000Y-615000D03*
D12*
G01*
X-720000Y-400000D03*
D13*
G01*
X-620000Y-400000D03*
D12*
G01*
X130000Y-755000D03*
D13*
G01*
X230000Y-755000D03*
G01*
X330000Y-755000D03*
G01*
X430000Y-755000D03*
D14*
G01*
X655000Y423600D03*
G01*
X655000Y226399D03*
D15*
G01*
X-447759Y440000D03*
G01*
X-447759Y340000D03*
G01*
X-447759Y240000D03*
G01*
X-447759Y140000D03*
G01*
X-447759Y40000D03*
G01*
X-447759Y-60000D03*
G01*
X-447759Y-160000D03*
G01*
X-447759Y-260000D03*
G01*
X457750Y-260000D03*
G01*
X457750Y-160000D03*
G01*
X457750Y-60000D03*
G01*
X457750Y40000D03*
G01*
X457750Y140000D03*
G01*
X457750Y240000D03*
G01*
X457750Y340000D03*
G01*
X457750Y440000D03*
M02*
