G04 Layer: TopSilkscreenLayer*
G04 EasyEDA v6.5.22, 2023-03-11 10:03:51*
G04 8c804c29d0f949b487868860c40900b7,2edda57568cb4d92a7641b919e05c1e7,10*
G04 Gerber Generator version 0.2*
G04 Scale: 100 percent, Rotated: No, Reflected: No *
G04 Dimensions in inches *
G04 leading zeros omitted , absolute positions ,3 integer and 6 decimal *
%FSLAX36Y36*%
%MOIN*%

%ADD10C,0.0060*%
%ADD11C,0.0080*%
%ADD12C,0.0080*%
%ADD13C,0.0100*%

%LPD*%
D10*
X-435000Y-649600D02*
G01*
X-435000Y-692500D01*
X-435000Y-649600D02*
G01*
X-416599Y-649600D01*
X-410500Y-651599D01*
X-408400Y-653699D01*
X-406399Y-657800D01*
X-406399Y-661900D01*
X-408400Y-665999D01*
X-410500Y-668000D01*
X-416599Y-670000D01*
X-435000Y-670000D02*
G01*
X-416599Y-670000D01*
X-410500Y-672100D01*
X-408400Y-674099D01*
X-406399Y-678200D01*
X-406399Y-684400D01*
X-408400Y-688499D01*
X-410500Y-690500D01*
X-416599Y-692500D01*
X-435000Y-692500D01*
X-378499Y-649600D02*
G01*
X-378499Y-692500D01*
X-392899Y-649600D02*
G01*
X-364200Y-649600D01*
X-350700Y-649600D02*
G01*
X-350700Y-692500D01*
X-350700Y-649600D02*
G01*
X-322100Y-692500D01*
X-322100Y-649600D02*
G01*
X-322100Y-692500D01*
X-795000Y-504600D02*
G01*
X-795000Y-547500D01*
X-795000Y-504600D02*
G01*
X-776599Y-504600D01*
X-770500Y-506599D01*
X-768400Y-508699D01*
X-766399Y-512800D01*
X-766399Y-516900D01*
X-768400Y-520999D01*
X-770500Y-523000D01*
X-776599Y-525000D01*
X-795000Y-525000D02*
G01*
X-776599Y-525000D01*
X-770500Y-527100D01*
X-768400Y-529099D01*
X-766399Y-533200D01*
X-766399Y-539400D01*
X-768400Y-543499D01*
X-770500Y-545500D01*
X-776599Y-547500D01*
X-795000Y-547500D01*
X-752899Y-504600D02*
G01*
X-752899Y-535300D01*
X-750799Y-541399D01*
X-746700Y-545500D01*
X-740599Y-547500D01*
X-736500Y-547500D01*
X-730399Y-545500D01*
X-726300Y-541399D01*
X-724200Y-535300D01*
X-724200Y-504600D01*
X-682100Y-504600D02*
G01*
X-710700Y-547500D01*
X-710700Y-504600D02*
G01*
X-682100Y-504600D01*
X-710700Y-547500D02*
G01*
X-682100Y-547500D01*
X-640000Y-504600D02*
G01*
X-668600Y-547500D01*
X-668600Y-504600D02*
G01*
X-640000Y-504600D01*
X-668600Y-547500D02*
G01*
X-640000Y-547500D01*
X-626500Y-504600D02*
G01*
X-626500Y-547500D01*
X-626500Y-504600D02*
G01*
X-599899Y-504600D01*
X-626500Y-525000D02*
G01*
X-610100Y-525000D01*
X-626500Y-547500D02*
G01*
X-599899Y-547500D01*
X-586399Y-504600D02*
G01*
X-586399Y-547500D01*
X-586399Y-504600D02*
G01*
X-568000Y-504600D01*
X-561799Y-506599D01*
X-559800Y-508699D01*
X-557699Y-512800D01*
X-557699Y-516900D01*
X-559800Y-520999D01*
X-561799Y-523000D01*
X-568000Y-525000D01*
X-586399Y-525000D01*
X-571999Y-525000D02*
G01*
X-557699Y-547500D01*
X-720000Y-289600D02*
G01*
X-720000Y-332500D01*
X-720000Y-332500D02*
G01*
X-695500Y-332500D01*
X-681999Y-289600D02*
G01*
X-681999Y-332500D01*
X-681999Y-289600D02*
G01*
X-655399Y-289600D01*
X-681999Y-310000D02*
G01*
X-665599Y-310000D01*
X-681999Y-332500D02*
G01*
X-655399Y-332500D01*
X-641900Y-289600D02*
G01*
X-641900Y-332500D01*
X-641900Y-289600D02*
G01*
X-627500Y-289600D01*
X-621399Y-291599D01*
X-617300Y-295700D01*
X-615300Y-299800D01*
X-613200Y-305999D01*
X-613200Y-316199D01*
X-615300Y-322300D01*
X-617300Y-326399D01*
X-621399Y-330500D01*
X-627500Y-332500D01*
X-641900Y-332500D01*
X155000Y-644600D02*
G01*
X155000Y-687500D01*
X155000Y-644600D02*
G01*
X169299Y-644600D01*
X175500Y-646599D01*
X179499Y-650700D01*
X181599Y-654800D01*
X183600Y-660999D01*
X183600Y-671199D01*
X181599Y-677300D01*
X179499Y-681399D01*
X175500Y-685500D01*
X169299Y-687500D01*
X155000Y-687500D01*
X197100Y-644600D02*
G01*
X197100Y-687500D01*
X239299Y-650700D02*
G01*
X235199Y-646599D01*
X229000Y-644600D01*
X220900Y-644600D01*
X214699Y-646599D01*
X210599Y-650700D01*
X210599Y-654800D01*
X212699Y-658899D01*
X214699Y-660999D01*
X218800Y-663000D01*
X231100Y-667100D01*
X235199Y-669099D01*
X237199Y-671199D01*
X239299Y-675300D01*
X239299Y-681399D01*
X235199Y-685500D01*
X229000Y-687500D01*
X220900Y-687500D01*
X214699Y-685500D01*
X210599Y-681399D01*
X252800Y-644600D02*
G01*
X252800Y-687500D01*
X252800Y-644600D02*
G01*
X271199Y-644600D01*
X277300Y-646599D01*
X279400Y-648699D01*
X281399Y-652800D01*
X281399Y-658899D01*
X279400Y-663000D01*
X277300Y-665000D01*
X271199Y-667100D01*
X252800Y-667100D01*
X294899Y-644600D02*
G01*
X294899Y-687500D01*
X294899Y-687500D02*
G01*
X319499Y-687500D01*
X349299Y-644600D02*
G01*
X333000Y-687500D01*
X349299Y-644600D02*
G01*
X365700Y-687500D01*
X339099Y-673200D02*
G01*
X359499Y-673200D01*
X379200Y-644600D02*
G01*
X395500Y-665000D01*
X395500Y-687500D01*
X411900Y-644600D02*
G01*
X395500Y-665000D01*
X815399Y490399D02*
G01*
X772500Y490399D01*
X815399Y490399D02*
G01*
X815399Y471999D01*
X813400Y465900D01*
X811300Y463800D01*
X807200Y461799D01*
X801099Y461799D01*
X796999Y463800D01*
X795000Y465900D01*
X792899Y471999D01*
X792899Y490399D01*
X815399Y448299D02*
G01*
X772500Y438000D01*
X815399Y427800D02*
G01*
X772500Y438000D01*
X815399Y427800D02*
G01*
X772500Y417600D01*
X815399Y407399D02*
G01*
X772500Y417600D01*
X815399Y393899D02*
G01*
X772500Y393899D01*
X815399Y393899D02*
G01*
X815399Y375399D01*
X813400Y369299D01*
X811300Y367300D01*
X807200Y365199D01*
X803100Y365199D01*
X798999Y367300D01*
X796999Y369299D01*
X795000Y375399D01*
X795000Y393899D01*
X795000Y379499D02*
G01*
X772500Y365199D01*
X758099Y351700D02*
G01*
X758099Y314899D01*
X809300Y272800D02*
G01*
X813400Y276900D01*
X815399Y283000D01*
X815399Y291199D01*
X813400Y297300D01*
X809300Y301399D01*
X805200Y301399D01*
X801099Y299400D01*
X798999Y297300D01*
X796999Y293200D01*
X792899Y280900D01*
X790900Y276900D01*
X788800Y274800D01*
X784700Y272800D01*
X778599Y272800D01*
X774499Y276900D01*
X772500Y283000D01*
X772500Y291199D01*
X774499Y297300D01*
X778599Y301399D01*
X815399Y259299D02*
G01*
X772500Y259299D01*
X815399Y259299D02*
G01*
X815399Y240900D01*
X813400Y234699D01*
X811300Y232699D01*
X807200Y230599D01*
X801099Y230599D01*
X796999Y232699D01*
X795000Y234699D01*
X792899Y240900D01*
X792899Y259299D01*
X815399Y217100D02*
G01*
X772500Y217100D01*
X772500Y217100D02*
G01*
X772500Y192600D01*
X815399Y179099D02*
G01*
X795000Y162699D01*
X772500Y162699D01*
X815399Y146399D02*
G01*
X795000Y162699D01*
X-6496Y652880D02*
G01*
X-6496Y622179D01*
X-4495Y616080D01*
X-396Y611979D01*
X5803Y609980D01*
X9904Y609980D01*
X16003Y611979D01*
X20104Y616080D01*
X22103Y622179D01*
X22103Y652880D01*
X35603Y644679D02*
G01*
X39704Y646779D01*
X45904Y652880D01*
X45904Y609980D01*
D11*
X-280000Y-705000D02*
G01*
X-280000Y-804000D01*
X-480000Y-804000D01*
X-480000Y-705000D01*
X-280000Y-705000D01*
X-570000Y-565000D02*
G01*
X-570000Y-664000D01*
X-770000Y-664000D01*
X-770000Y-565000D01*
X-570000Y-565000D01*
X-570000Y-350000D02*
G01*
X-570000Y-449000D01*
X-770000Y-449000D01*
X-770000Y-350000D01*
X-570000Y-350000D01*
X480000Y-705000D02*
G01*
X480000Y-805000D01*
X80000Y-805000D01*
X80000Y-705000D01*
X155000Y-705000D01*
D12*
X480000Y-705000D02*
G01*
X155000Y-705000D01*
D13*
X567680Y521849D02*
G01*
X567680Y128150D01*
X809579Y522060D02*
G01*
X816417Y537600D01*
X777047Y537600D01*
X784799Y522060D01*
X836102Y521849D02*
G01*
X836102Y128150D01*
X836102Y521849D02*
G01*
X536889Y521849D01*
X836102Y128150D02*
G01*
X536889Y128150D01*
X536889Y521849D02*
G01*
X536889Y128150D01*
X749520Y521849D02*
G01*
X749520Y128150D01*
X-470000Y592800D02*
G01*
X455000Y592800D01*
X-536363Y-877820D02*
G01*
X-536363Y522498D01*
X461448Y-942510D02*
G01*
X-466363Y-942510D01*
X526747Y526909D02*
G01*
X526747Y-872510D01*
X-159996Y365000D02*
G01*
X154963Y365000D01*
X154963Y50039D01*
X-159996Y50039D01*
X-159996Y365000D01*
X-284996Y-320000D02*
G01*
X305003Y-320000D01*
X305003Y-492500D01*
X-284996Y-492500D01*
X-284996Y-320000D01*
X-94996Y50000D02*
G01*
X105003Y50000D01*
X105003Y-320000D01*
X-94996Y-320000D01*
X-94996Y50000D01*
G75*
G01*
X-471599Y592499D02*
G03*
X-536599Y522499I14098J-78269D01*
G75*
G01*
X526748Y526909D02*
G03*
X456748Y591909I-78269J-14098D01*
G75*
G01*
X461449Y-942511D02*
G03*
X526449Y-872511I-14098J78269D01*
G75*
G01*
X-536364Y-877821D02*
G03*
X-466364Y-942821I78269J14098D01*
G75*
G01
X118110Y210000D02*
G03X118110Y210000I-118110J0D01*
G75*
G01
X32020Y210000D02*
G03X32020Y210000I-32020J0D01*
M02*
